<svg width="25" height="27" viewBox="0 0 25 27" fill="none" xmlns="http://www.w3.org/2000/svg">
<path d="M21.9577 15.3562V11.1821C23.3874 10.9018 24.4662 9.64231 24.4662 8.13055C24.4662 6.41315 23.0737 5.02092 21.3563 5.02092C20.5029 5.02092 19.7295 5.36469 19.1679 5.92152L15.2483 3.4797C15.2626 3.35815 15.27 3.23489 15.27 3.10962C15.27 1.39222 13.8778 0 12.1604 0C10.443 0 9.05078 1.39222 9.05078 3.10962C9.05078 4.82702 10.443 6.21924 12.1604 6.21924C13.3158 6.21924 14.3242 5.58891 14.8602 4.65342L18.4926 6.9165C18.3345 7.28944 18.2467 7.69984 18.2467 8.13055C18.2467 9.64231 19.3254 10.9018 20.7548 11.1821V15.3562C19.3254 15.6362 18.2467 16.896 18.2467 18.4078C18.2467 20.1252 19.6392 21.5171 21.3563 21.5171C23.0737 21.5171 24.4662 20.1252 24.4662 18.4078C24.4662 16.896 23.3874 15.6362 21.9577 15.3562" fill="#FF6000"/>
<path d="M15.2695 13.2693C15.2695 11.5519 13.8772 10.1596 12.1598 10.1596C10.4427 10.1596 9.05022 11.5519 9.05022 13.2693C9.05022 14.7808 10.129 16.0391 11.5584 16.3194V20.45C10.7919 20.6002 10.1264 21.032 9.67398 21.6332L6.17855 19.4556C6.29581 19.1282 6.35958 18.7755 6.35958 18.4077C6.35958 16.8963 5.2811 15.6365 3.85141 15.3562V11.1821C5.2811 10.9021 6.35958 9.64228 6.35958 8.1308C6.35958 6.41311 4.96765 5.02118 3.25025 5.02118C1.53256 5.02118 0.140625 6.41311 0.140625 8.1308C0.140625 9.64228 1.21911 10.9021 2.6488 11.1821V15.3562C1.21911 15.6365 0.140625 16.8963 0.140625 18.4077C0.140625 20.1251 1.53256 21.5174 3.25025 21.5174C4.16801 21.5174 4.9931 21.1198 5.56223 20.4872L9.14889 22.7217C9.08455 22.9708 9.05022 23.2322 9.05022 23.5013C9.05022 25.2187 10.4427 26.6109 12.1598 26.6109C13.8772 26.6109 15.2695 25.2187 15.2695 23.5013C15.2695 21.9898 14.191 20.73 12.7613 20.45V16.3194C14.1907 16.0391 15.2695 14.7808 15.2695 13.2693Z" fill="#FF6000"/>
<path d="M11.346 26.4034C10.1224 26.0326 9.16721 24.7102 9.16721 23.3869C9.16721 22.6213 9.12338 22.5751 7.38183 21.506C5.9481 20.6258 5.53388 20.4559 5.27878 20.6434C3.86549 21.6819 2.32249 21.6564 1.2427 20.5766C-0.318926 19.015 0.13769 16.4385 2.12309 15.609L2.80676 15.3233V13.2897V11.256L1.94525 10.779C-0.430603 9.46351 -0.192197 6.18495 2.34452 5.2882C4.53002 4.51561 6.79093 6.70832 6.11951 8.94933C5.87272 9.77307 4.67657 11.0201 4.13326 11.0201C3.88743 11.0201 3.83264 11.4315 3.83264 13.2771C3.83264 15.1226 3.88743 15.534 4.13326 15.534C4.64056 15.534 5.84582 16.7446 6.09737 17.5068C6.22829 17.9035 6.28103 18.5221 6.21459 18.8815C6.09711 19.5169 6.1421 19.5647 7.84532 20.6152L9.59686 21.6954L10.254 21.2097C10.6155 20.9426 11.0728 20.6671 11.2703 20.5976C11.5816 20.4879 11.6281 20.1909 11.6197 18.3616L11.6102 16.2521L10.7713 15.8402C8.6158 14.7818 8.64614 11.7843 10.8238 10.6494C11.8844 10.0967 12.9707 10.163 13.919 10.8383C15.7209 12.1214 15.4591 15.0764 13.4696 15.9119L12.6594 16.2521L12.6573 18.3383L12.6552 20.4244L13.4219 20.8004C14.9436 21.5465 15.5342 23.3135 14.7877 24.8865C14.231 26.0598 12.5937 26.7814 11.3461 26.4034H11.346Z" fill="#FF6000"/>
<path d="M20.0963 21.0912C17.8375 20.04 17.8067 16.7125 20.0471 15.7717L20.8572 15.4315L20.8593 13.2671L20.8614 11.1026L20.1356 10.8402C19.6881 10.6784 19.2061 10.27 18.8789 9.77557C18.4318 9.09994 18.3622 8.80216 18.4381 7.8874L18.5282 6.80136L16.7096 5.70187L14.8911 4.60237L14.337 5.11893C13.5426 5.85944 12.9969 6.09599 12.0827 6.09599C9.9206 6.09599 8.45015 3.47747 9.57564 1.63153C11.0353 -0.762581 14.7527 -0.0674399 15.0598 2.65707C15.1591 3.53809 15.1918 3.57152 17.1052 4.74926L19.0497 5.94612L19.9268 5.50811C21.0395 4.95237 21.5797 4.95698 22.7006 5.53175C24.871 6.64466 24.897 9.65443 22.7454 10.7109L21.9065 11.1228L21.8969 13.2872L21.8873 15.4516L22.5993 15.7091C24.6665 16.4566 24.9188 19.6925 23.0023 20.877C21.9988 21.4972 21.1095 21.5627 20.0963 21.0912L20.0963 21.0912Z" fill="#FF6000"/>
<path d="M2.69724 21.4514C1.23069 21.1733 0.167969 19.906 0.167969 18.4353C0.167969 18.2276 0.193827 17.9318 0.225426 17.7781C0.385069 17.0013 0.876429 16.2781 1.55042 15.828C1.81737 15.6497 2.28261 15.439 2.37117 15.4562C2.40273 15.4623 2.33205 15.5061 2.21409 15.5534C1.28146 15.9277 0.636178 16.6511 0.382215 17.6073C0.274322 18.0135 0.274148 18.6869 0.381833 19.0944C0.645954 20.0937 1.37633 20.9279 2.27416 21.2555C3.15509 21.577 4.14117 21.4097 5.11069 20.7741C5.26578 20.6725 5.39997 20.5966 5.40888 20.6055C5.44436 20.641 4.88389 21.0443 4.61108 21.1796C4.0466 21.4595 3.29948 21.5657 2.69724 21.4514Z" fill="#FF6000"/>
<path d="M2.79688 13.291C2.79687 12.1739 2.80147 11.7117 2.8071 12.2638C2.81271 12.816 2.81271 13.73 2.80711 14.295C2.8015 14.8599 2.79689 14.4082 2.79688 13.291H2.79688Z" fill="#FF6000"/>
<path d="M2.67188 13.2742C2.67188 11.4524 2.67829 11.2104 2.72628 11.2288C2.77375 11.247 2.78069 11.5104 2.78069 13.295C2.78069 15.089 2.77399 15.3404 2.72628 15.3404C2.67856 15.3404 2.67188 15.0867 2.67188 13.2742Z" fill="#FF6000"/>
<path d="M20.9131 21.4761C19.906 21.318 19.0332 20.6869 18.5955 19.8004C18.35 19.3032 18.2723 18.9706 18.2715 18.4125C18.2708 17.9932 18.2995 17.7999 18.4155 17.4419C18.7314 16.4668 19.5704 15.6714 20.5505 15.418L20.7715 15.3609V13.2697V11.1786L20.5865 11.1309C19.5859 10.8731 18.7502 10.1 18.425 9.13135C18.2992 8.7564 18.2743 8.59115 18.2739 8.12803C18.2737 7.74202 18.2813 7.66115 18.341 7.42274C18.3781 7.27462 18.4261 7.11305 18.4477 7.06368L18.4869 6.97391L18.4874 7.0765C18.4877 7.13292 18.4709 7.37529 18.4503 7.61509C18.3958 8.24683 18.3999 8.70099 18.4624 8.94526C18.5931 9.45643 19.091 10.1719 19.5618 10.5252C19.806 10.7085 19.9797 10.7948 20.4346 10.959L20.8356 11.1038V13.2659V15.4281L20.3355 15.6403C19.8024 15.8665 19.6462 15.9509 19.395 16.148C18.9615 16.4881 18.6324 17.004 18.4742 17.5918C18.3818 17.9348 18.3581 18.5476 18.4237 18.8998C18.6316 20.0176 19.3375 20.8428 20.4176 21.2309C20.8012 21.3687 21.0589 21.4087 21.463 21.3934C21.9661 21.3744 22.3491 21.2605 22.8361 20.9851C23.4947 20.6126 23.9108 20.1155 24.1416 19.4255C24.5128 18.3154 24.2559 17.0442 23.5073 16.2866C23.186 15.9615 22.9252 15.8114 22.2783 15.5793L21.9 15.4436V14.1688C21.9 13.4676 21.9076 12.4957 21.9169 12.009L21.9338 11.1241L22.4619 10.8608C23.0249 10.58 23.2175 10.4574 23.4775 10.2142C24.0474 9.68109 24.347 8.97013 24.3458 8.15367C24.3449 7.55381 24.1794 7.01546 23.8414 6.51227C23.6814 6.2742 23.2985 5.89711 23.0422 5.72522C22.6556 5.46597 22.0809 5.21155 21.6948 5.12871L21.5281 5.09293L21.7477 5.09094C22.4396 5.08453 23.3212 5.59019 23.8474 6.29525C24.7581 7.51574 24.6253 9.24002 23.5369 10.3242C23.1648 10.695 22.6999 10.9671 22.1974 11.1083L21.9513 11.1775V13.2754C21.9513 15.1157 21.9559 15.3733 21.9894 15.3733C22.074 15.3733 22.5417 15.5402 22.7463 15.6434C24.1413 16.3467 24.7976 17.9859 24.2709 19.4512C24.1183 19.876 23.9101 20.2082 23.586 20.5445C23.15 20.9969 22.7014 21.2573 22.0817 21.4179C21.8871 21.4683 21.7557 21.4835 21.4511 21.4909C21.2396 21.496 20.9974 21.4894 20.9131 21.4761L20.9131 21.4761Z" fill="#FF6000"/>
</svg>
